<svg xmlns="http://www.w3.org/2000/svg" style="display:none">
  <symbol id="icon-pr" viewBox="0 0 24 24" fill="none" stroke="currentColor" stroke-width="2">
    <path d="M12 2L2 7l10 5 10-5-10-5zM2 17l10 5 10-5M2 12l10 5 10-5"/>
  </symbol>
  <symbol id="icon-health" viewBox="0 0 24 24" fill="none" stroke="currentColor" stroke-width="2">
    <path d="M12 2v20M2 12h20"/>
    <circle cx="12" cy="12" r="3"/>
  </symbol>
  <symbol id="icon-news" viewBox="0 0 24 24" fill="none" stroke="currentColor" stroke-width="2">
    <rect x="3" y="4" width="18" height="16" rx="2"/>
    <path d="M7 8h10M7 12h10M7 16h5"/>
  </symbol>
  <symbol id="icon-tech" viewBox="0 0 24 24" fill="none" stroke="currentColor" stroke-width="2">
    <rect x="2" y="7" width="20" height="14" rx="2"/>
    <path d="M8 21V7M16 21V7M2 11h20"/>
  </symbol>
  <symbol id="icon-business" viewBox="0 0 24 24" fill="none" stroke="currentColor" stroke-width="2">
    <path d="M12 2L2 7l10 5 10-5-10-5zM2 17l10 5 10-5M2 12l10 5 10-5"/>
    <circle cx="12" cy="12" r="2"/>
  </symbol>
  <symbol id="icon-tourism" viewBox="0 0 24 24" fill="none" stroke="currentColor" stroke-width="2">
    <path d="M12 2L2 7l10 5 10-5-10-5zM2 17l10 5 10-5M2 12l10 5 10-5"/>
    <path d="M12 8v8M8 12h8"/>
  </symbol>
  <symbol id="icon-construction" viewBox="0 0 24 24" fill="none" stroke="currentColor" stroke-width="2">
    <path d="M3 21h18M5 21V7l8-4v18M19 21V11l-6-4"/>
    <path d="M9 9v0M9 15v0M15 13v0"/>
  </symbol>
  <symbol id="icon-misc" viewBox="0 0 24 24" fill="none" stroke="currentColor" stroke-width="2">
    <circle cx="12" cy="12" r="10"/>
    <path d="M12 6v6M12 16h.01"/>
  </symbol>
</svg>

